<svg width="41" height="51" viewBox="0 0 41 51" fill="none" xmlns="http://www.w3.org/2000/svg">
<path d="M37.114 43.75C35.039 46.85 32.839 49.875 29.489 49.925C26.139 50 25.064 47.95 21.2641 47.95C17.4391 47.95 16.2641 49.875 13.089 50C9.81398 50.125 7.33898 46.7 5.23898 43.675C0.963975 37.5 -2.31103 26.125 2.08897 18.475C4.26397 14.675 8.16398 12.275 12.389 12.2C15.5891 12.15 18.639 14.375 20.614 14.375C22.564 14.375 26.2641 11.7 30.1391 12.1C31.7641 12.175 36.314 12.75 39.239 17.05C39.014 17.2 33.814 20.25 33.864 26.575C33.939 34.125 40.4891 36.65 40.5641 36.675C40.4891 36.85 39.514 40.275 37.114 43.75ZM22.8391 3.75C24.6641 1.675 27.689 0.1 30.189 0C30.514 2.925 29.339 5.875 27.589 7.975C25.864 10.1 23.014 11.75 20.214 11.525C19.839 8.65 21.2391 5.65 22.8391 3.75Z" fill="#F7F4EF"/>
</svg>
