<svg width="24" height="46" viewBox="0 0 24 46" fill="none" xmlns="http://www.w3.org/2000/svg">
<path fill-rule="evenodd" clip-rule="evenodd" d="M5.625 23.1875V44.9375C5.625 45.3125 5.8125 45.5 6.1875 45.5H14.8125C15.1875 45.5 15.375 45.3125 15.375 44.9375V22.8125H21.75C22.125 22.8125 22.3125 22.625 22.3125 22.25L22.875 15.5C22.875 15.125 22.6875 14.9375 22.3125 14.9375H15.375V10.25C15.375 9.125 16.3125 8.1875 17.625 8.1875H22.5C23.0625 8.1875 23.25 8 23.25 7.625V1.0625C23.25 0.6875 23.0625 0.5 22.6875 0.5H14.4375C9.5625 0.5 5.625 4.0625 5.625 8.5625V14.9375H1.3125C0.9375 14.9375 0.75 15.125 0.75 15.5V22.25C0.75 22.625 0.9375 22.8125 1.3125 22.8125H5.625V23.1875Z" fill="#F7F4EF"/>
</svg>
