<svg width="40" height="41" viewBox="0 0 40 41" fill="none" xmlns="http://www.w3.org/2000/svg">
<path d="M39.2326 17.1487L39.0076 16.2737H20.4076V24.1737H31.5326C30.9118 26.5844 29.5006 28.7172 27.5243 30.2309C25.5483 31.7447 23.1216 32.5519 20.6326 32.5237C17.3846 32.4969 14.2639 31.2574 11.8825 29.0487C10.7119 27.8949 9.78035 26.5214 9.14115 25.0072C8.50198 23.4929 8.16773 21.8674 8.15755 20.2237C8.19533 16.9224 9.50235 13.7623 11.8076 11.3987C14.1553 9.17465 17.2736 7.947 20.5076 7.97375C23.2773 7.99507 25.9441 9.02622 28.0076 10.8737L33.5076 5.22375C29.8826 1.98965 25.1906 0.208948 20.3326 0.223748C17.6601 0.207873 15.0108 0.718523 12.5357 1.72657C10.0607 2.7346 7.8084 4.22027 5.90755 6.09875C2.29178 9.85445 0.253226 14.8532 0.211351 20.0664C0.169501 25.2797 2.12755 30.3104 5.68255 34.1237C7.65215 36.0859 9.9931 37.6362 12.5686 38.6834C15.1441 39.7309 17.9023 40.2544 20.6826 40.2237C23.2036 40.2424 25.7023 39.7492 28.0273 38.7737C30.3521 37.7982 32.4546 36.3609 34.2076 34.5487C37.6473 30.7664 39.5081 25.8104 39.4076 20.6987C39.4346 19.5127 39.3761 18.3264 39.2326 17.1487Z" fill="#F7F4EF"/>
</svg>
