<svg width="40" height="40" viewBox="0 0 40 40" fill="none" xmlns="http://www.w3.org/2000/svg">
<g clip-path="url(#clip0_68_43)">
<path d="M36.6673 31.0677H3.48855C1.56253 31.0677 0.88855 32.6297 0.88855 34.5563V34.904C0.88855 36.8313 2.4505 38.3926 4.37652 38.3926H35.7707C37.6968 38.3926 39.2587 36.8314 39.2587 34.904V34.5563C39.2588 32.6297 38.5946 31.0677 36.6673 31.0677Z" fill="#2D3142"/>
<path d="M34.9358 29.1939C36.7241 29.1939 38.1739 28.0404 38.1739 26.6154V26.5404C38.1739 25.1168 36.7242 23.962 34.9358 23.962H5.79638C4.00873 23.962 2.55896 25.1168 2.55896 26.5404V26.6154C2.55896 28.0404 4.00865 29.1939 5.79638 29.1939H34.9358Z" fill="#2D3142"/>
<path d="M3.25564 16.0562H36.8911C38.1705 16.0562 38.9091 15.3581 38.9091 14.0323C38.9091 13.5802 38.8686 13.7858 38.7936 13.3387C37.7608 7.15569 29.7756 1.60733 20.0744 1.60733C10.3719 1.60733 2.38666 7.15577 1.35384 13.3389H1.35322C1.27822 13.7858 1.23767 13.5804 1.23767 14.0325C1.23767 15.3582 1.97626 16.0562 3.25564 16.0562ZM30.6981 7.13741C31.2117 7.13741 31.6285 7.55428 31.6285 8.0678C31.6285 8.58124 31.2117 8.99819 30.6981 8.99819C30.1847 8.99819 29.7671 8.58124 29.7671 8.0678C29.7671 7.55428 30.1847 7.13741 30.6981 7.13741ZM26.0468 4.10288C26.5603 4.10288 26.9766 4.51975 26.9766 5.03264C26.9766 5.54741 26.5603 5.96436 26.0468 5.96436C25.5327 5.96436 25.1164 5.54741 25.1164 5.03264C25.1164 4.51975 25.5327 4.10288 26.0468 4.10288ZM23.0235 7.13741C23.5376 7.13741 23.9538 7.55428 23.9538 8.0678C23.9538 8.58124 23.5376 8.99819 23.0235 8.99819C22.51 8.99819 22.0931 8.58124 22.0931 8.0678C22.0931 7.55428 22.51 7.13741 23.0235 7.13741ZM19.5349 2.95202C20.0489 2.95202 20.4652 3.36827 20.4652 3.88178C20.4652 4.39522 20.0489 4.81147 19.5349 4.81147C19.0213 4.81147 18.6045 4.39522 18.6045 3.88178C18.6045 3.36819 19.0213 2.95202 19.5349 2.95202ZM16.7443 6.90452C17.2578 6.90452 17.6747 7.32139 17.6747 7.83553C17.6747 8.34905 17.2578 8.76592 16.7443 8.76592C16.2308 8.76592 15.8139 8.34905 15.8139 7.83553C15.8139 7.32139 16.2308 6.90452 16.7443 6.90452ZM13.4887 4.11397C14.0021 4.11397 14.419 4.53022 14.419 5.04436C14.419 5.55842 14.0021 5.97475 13.4887 5.97475C12.9745 5.97475 12.5583 5.55842 12.5583 5.04436C12.5583 4.53022 12.9745 4.11397 13.4887 4.11397ZM9.76705 6.90452C10.2812 6.90452 10.6981 7.32139 10.6981 7.83553C10.6981 8.34905 10.2813 8.76592 9.76705 8.76592C9.25361 8.76592 8.83728 8.34905 8.83728 7.83553C8.83736 7.32139 9.25361 6.90452 9.76705 6.90452Z" fill="#2D3142"/>
<path d="M38.838 18.1037C38.4283 18.103 38.0401 18.1656 37.6891 18.2824C37.3817 18.3841 37.1058 18.5258 36.8657 18.6856C36.4456 18.9654 36.1337 19.291 35.8746 19.5847C35.6802 19.8045 35.5138 20.0101 35.3611 20.1829C35.1334 20.4452 34.9397 20.6259 34.7661 20.7303C34.6781 20.7812 34.5952 20.8197 34.4966 20.8477C34.3981 20.8751 34.282 20.8934 34.1273 20.894C33.9479 20.8934 33.8207 20.8693 33.7117 20.8334C33.6165 20.8021 33.5323 20.759 33.4416 20.6997C33.285 20.5972 33.1095 20.4302 32.9085 20.2005C32.7572 20.0296 32.5921 19.8261 32.4003 19.6055C32.112 19.2793 31.7584 18.9061 31.2598 18.604C31.0119 18.4533 30.7287 18.3248 30.4168 18.2367C30.1063 18.1492 29.7696 18.1029 29.4173 18.1036C29.0082 18.1029 28.62 18.1655 28.269 18.2823C27.9616 18.384 27.6857 18.5257 27.4456 18.6855C27.0248 18.9654 26.7136 19.2909 26.4545 19.5846C26.2595 19.8044 26.0937 20.01 25.941 20.1829C25.7127 20.4451 25.5202 20.6258 25.346 20.7302C25.258 20.7811 25.1751 20.8196 25.0766 20.8476C24.9787 20.8751 24.8626 20.8933 24.7079 20.894C24.5278 20.8933 24.4012 20.8692 24.2923 20.8333C24.1964 20.802 24.1123 20.759 24.0216 20.6996C23.8656 20.5972 23.6908 20.4301 23.4891 20.2004C23.3377 20.0295 23.1734 19.826 22.9809 19.6068C22.6925 19.2792 22.3389 18.906 21.8411 18.604C21.5925 18.4533 21.31 18.3247 20.9981 18.2366C20.6875 18.1491 20.3502 18.1029 19.9986 18.1035C19.5895 18.1029 19.2013 18.1654 18.8509 18.2822C18.5437 18.384 18.267 18.5256 18.0269 18.6854C17.606 18.9653 17.2948 19.2908 17.0352 19.5845C16.8414 19.8044 16.6757 20.0099 16.523 20.1828C16.2946 20.4451 16.1009 20.6258 15.9273 20.7301C15.8399 20.7811 15.757 20.8195 15.6585 20.8476C15.5587 20.875 15.4438 20.8933 15.2892 20.8939C15.1091 20.8933 14.9826 20.8691 14.873 20.8333C14.7784 20.8019 14.6936 20.7589 14.6042 20.6995C14.447 20.5971 14.2728 20.4301 14.0705 20.2004C13.9191 20.0294 13.7547 19.8259 13.5623 19.6067C13.2745 19.2791 12.9202 18.9059 12.4224 18.6039C12.1745 18.4532 11.8907 18.3247 11.5802 18.2365C11.2689 18.149 10.9323 18.1028 10.5799 18.1034C10.1709 18.1028 9.78336 18.1654 9.43164 18.2822C9.1243 18.3839 8.84899 18.5255 8.60891 18.6854C8.18813 18.9652 7.87688 19.2908 7.61727 19.5844C7.42274 19.8043 7.25711 20.0098 7.10508 20.1827C6.87672 20.445 6.68289 20.6257 6.51 20.7301C6.42195 20.781 6.33844 20.8194 6.23984 20.8475C6.14141 20.8749 6.02586 20.8932 5.87125 20.8938C5.69117 20.8932 5.56461 20.869 5.45563 20.8332C5.36031 20.8019 5.27625 20.7588 5.18617 20.6994C5.02961 20.597 4.85406 20.4307 4.65305 20.2003C4.50172 20.0294 4.33727 19.8258 4.14484 19.6066C3.85648 19.279 3.50289 18.9072 3.005 18.6038C2.75711 18.4531 2.47391 18.3246 2.16273 18.2365C1.85156 18.149 1.51492 18.1027 1.1625 18.1033C0.520625 18.1037 0 18.6244 0 19.2663C0 19.9083 0.520625 20.429 1.16266 20.429C1.34281 20.429 1.4693 20.4538 1.57828 20.4897C1.67359 20.5216 1.75773 20.5633 1.84773 20.6234C2.00438 20.7265 2.17922 20.8922 2.38086 21.1219C2.53219 21.2928 2.69664 21.4976 2.88906 21.7169C3.1775 22.0437 3.53109 22.4163 4.02891 22.7197C4.27688 22.8703 4.56063 22.9982 4.87117 23.0856C5.1818 23.1731 5.51906 23.2194 5.87141 23.2194C6.27984 23.2201 6.66805 23.1573 7.01906 23.0406C7.32633 22.9382 7.60234 22.7973 7.8418 22.6381C8.26328 22.3576 8.57445 22.0314 8.83422 21.739C9.02797 21.5179 9.1943 21.313 9.34641 21.1394C9.57539 20.8778 9.76781 20.6971 9.94141 20.5933C10.0295 20.5412 10.1123 20.5033 10.2116 20.4753C10.3095 20.4479 10.4248 20.429 10.5802 20.429C10.7603 20.429 10.8868 20.4538 10.9958 20.4897C11.0911 20.5216 11.1752 20.5633 11.2659 20.6234C11.4225 20.7265 11.5973 20.8922 11.7984 21.1219C11.9497 21.2928 12.1148 21.4976 12.3066 21.7169C12.5956 22.0437 12.9486 22.4163 13.447 22.7197C13.6949 22.8703 13.9781 22.9982 14.2893 23.0856C14.6005 23.1731 14.9372 23.2194 15.2895 23.2194C15.698 23.2201 16.0868 23.1573 16.4371 23.0406C16.7445 22.9382 17.0205 22.7973 17.2605 22.6381C17.6813 22.3576 17.9926 22.0314 18.2516 21.739C18.4466 21.5179 18.6124 21.313 18.7651 21.1394C18.9934 20.8778 19.1866 20.6971 19.3601 20.5933C19.4475 20.5412 19.531 20.5033 19.6296 20.4753C19.728 20.4479 19.8436 20.429 19.9988 20.429C20.1789 20.429 20.3048 20.4538 20.4138 20.4897C20.5097 20.5216 20.5939 20.5633 20.684 20.6234C20.8405 20.7265 21.0154 20.8922 21.217 21.1219C21.369 21.2928 21.5334 21.4976 21.7252 21.7169C22.0136 22.0437 22.3673 22.4163 22.8657 22.7197C23.1137 22.8703 23.3968 22.9982 23.708 23.0856C24.0192 23.1731 24.3559 23.2194 24.7082 23.2194C25.1166 23.2201 25.5048 23.1573 25.8559 23.0406C26.1632 22.9382 26.4391 22.7973 26.6792 22.6381C27.1 22.3576 27.4119 22.0314 27.6703 21.739C27.8647 21.5179 28.0312 21.313 28.1831 21.1394C28.4115 20.8778 28.6052 20.6971 28.7795 20.5933C28.8656 20.5412 28.9498 20.5033 29.0482 20.4753C29.1468 20.4479 29.2622 20.429 29.4175 20.429C29.597 20.429 29.7236 20.4538 29.8331 20.4897C29.9284 20.5216 30.0131 20.5633 30.1026 20.6234C30.2598 20.7265 30.434 20.8922 30.6363 21.1219C30.7877 21.2928 30.9527 21.4976 31.1452 21.7169C31.4329 22.0444 31.7873 22.4163 32.285 22.7197C32.533 22.8703 32.8162 22.9982 33.1273 23.0856C33.4386 23.1737 33.7752 23.2201 34.1276 23.2201C34.5366 23.2201 34.9256 23.1574 35.2752 23.0406C35.5825 22.9389 35.8585 22.7973 36.0985 22.6381C36.52 22.3576 36.8319 22.0314 37.0902 21.739C37.2841 21.5185 37.4511 21.3137 37.6031 21.1394C37.8314 20.8778 38.0246 20.6971 38.1988 20.5933C38.2855 20.5412 38.3691 20.5033 38.4682 20.476C38.5674 20.4479 38.6822 20.429 38.8381 20.429C39.4795 20.429 40.0002 19.9083 40.0002 19.2663C40 18.6244 39.4794 18.1037 38.838 18.1037Z" fill="#2D3142"/>
</g>
<defs>
<clipPath id="clip0_68_43">
<rect width="40" height="40" fill="white"/>
</clipPath>
</defs>
</svg>
