<svg width="206" height="31" viewBox="0 0 206 31" fill="none" xmlns="http://www.w3.org/2000/svg">
<path d="M145.603 12.376H140.563V15.1006C140.563 15.6182 140.705 15.9941 140.988 16.2285C141.281 16.4531 141.799 16.5654 142.541 16.5654V22H129.519V16.5654C130.378 16.5654 130.993 16.4531 131.364 16.2285C131.735 15.9941 131.921 15.5596 131.921 14.9248V7.5127C131.921 6.86816 131.735 6.43359 131.364 6.20898C130.993 5.97461 130.378 5.85742 129.519 5.85742V0.422852H142.541V5.85742C141.799 5.85742 141.281 5.97461 140.988 6.20898C140.705 6.43359 140.563 6.80957 140.563 7.33691V9.69531H145.603V7.33691C145.603 6.80957 145.456 6.43359 145.163 6.20898C144.87 5.97461 144.357 5.85742 143.625 5.85742V0.422852H156.633V5.85742C155.773 5.85742 155.158 5.97461 154.787 6.20898C154.426 6.43359 154.245 6.86816 154.245 7.5127V14.9248C154.245 15.5596 154.426 15.9941 154.787 16.2285C155.158 16.4531 155.773 16.5654 156.633 16.5654V22H143.625V16.5654C144.357 16.5654 144.87 16.4531 145.163 16.2285C145.456 15.9941 145.603 15.6182 145.603 15.1006V12.376Z" fill="#EEE9DF"/>
<path d="M179.089 15.3936C179.089 15.8623 179.221 16.1748 179.484 16.3311C179.758 16.4873 180.065 16.5654 180.407 16.5654H181.184V22H172.482V17.9863H172.248C172.023 19.4805 171.413 20.6133 170.417 21.3848C169.421 22.1562 167.971 22.542 166.066 22.542C164.729 22.542 163.64 22.3516 162.8 21.9707C161.96 21.5898 161.311 21.1113 160.852 20.5352C160.393 19.9492 160.075 19.3193 159.899 18.6455C159.733 17.9619 159.65 17.3223 159.65 16.7266V12.7275C159.65 12.21 159.558 11.8438 159.372 11.6289C159.196 11.4043 158.85 11.292 158.332 11.292H157.453V5.85742H167.692V15.1006C167.692 15.4814 167.736 15.7891 167.824 16.0234C167.912 16.248 168.024 16.4238 168.161 16.5508C168.308 16.668 168.469 16.7461 168.645 16.7852C168.83 16.8242 169.001 16.8438 169.157 16.8438C169.802 16.8438 170.275 16.6582 170.578 16.2871C170.891 15.916 171.047 15.3887 171.047 14.7051V12.7275C171.047 12.21 170.954 11.8438 170.769 11.6289C170.593 11.4043 170.246 11.292 169.729 11.292H168.864V5.85742H179.089V15.3936Z" fill="#EEE9DF"/>
<path d="M192.39 17.2246C192.546 17.4883 192.849 17.6982 193.298 17.8545C193.747 18.001 194.162 18.0742 194.543 18.0742C194.982 18.0742 195.339 17.9668 195.612 17.752C195.886 17.5273 196.101 17.2295 196.257 16.8584C196.423 16.4873 196.535 16.0576 196.594 15.5693C196.652 15.0811 196.682 14.5732 196.682 14.0459C196.682 13.5283 196.652 13.0352 196.594 12.5664C196.535 12.0977 196.423 11.6875 196.257 11.3359C196.101 10.9844 195.881 10.7109 195.598 10.5156C195.314 10.3105 194.953 10.208 194.514 10.208C194.074 10.208 193.718 10.3105 193.444 10.5156C193.181 10.7109 192.966 10.9844 192.8 11.3359C192.644 11.6875 192.536 12.0977 192.478 12.5664C192.419 13.0352 192.39 13.5283 192.39 14.0459V17.2246ZM197.883 5.34473C200.119 5.34473 201.867 6.07227 203.127 7.52734C204.387 8.97266 205.017 11.0967 205.017 13.8994C205.017 16.7021 204.357 18.8359 203.039 20.3008C201.721 21.7559 199.909 22.4834 197.604 22.4834C196.784 22.4834 196.062 22.4053 195.437 22.249C194.821 22.1025 194.27 21.9121 193.781 21.6777C193.293 21.4336 192.849 21.1553 192.448 20.8428C192.048 20.5303 191.657 20.2178 191.276 19.9053H191.071L190.559 22H184.348V7.5127C184.348 6.94629 184.167 6.53125 183.806 6.26758C183.444 5.99414 183.034 5.85742 182.575 5.85742H182.253V0.422852H192.39V8.68457H192.624C192.771 8.26465 192.971 7.85449 193.225 7.4541C193.488 7.05371 193.83 6.69727 194.25 6.38477C194.67 6.07227 195.178 5.82324 195.773 5.6377C196.379 5.44238 197.082 5.34473 197.883 5.34473Z" fill="#EEE9DF"/>
<path d="M11.6455 14.0459V14.9248C11.6455 15.4424 11.7725 15.8477 12.0264 16.1406C12.29 16.4238 12.7637 16.5654 13.4473 16.5654H14.9414V22H0.600586V16.5654C1.45996 16.5654 2.0752 16.4531 2.44629 16.2285C2.81738 15.9941 3.00293 15.5596 3.00293 14.9248V7.5127C3.00293 6.86816 2.81738 6.43359 2.44629 6.20898C2.0752 5.97461 1.45996 5.85742 0.600586 5.85742V0.422852H16.4062C17.8516 0.422852 19.0625 0.59375 20.0391 0.935547C21.0156 1.27734 21.7969 1.75586 22.3828 2.37109C22.9785 2.97656 23.3984 3.71387 23.6426 4.58301C23.8965 5.45215 24.0234 6.40918 24.0234 7.4541C24.0234 8.50879 23.8965 9.44141 23.6426 10.252C23.3984 11.0625 22.9785 11.7559 22.3828 12.332C21.7969 12.8984 21.0156 13.3281 20.0391 13.6211C19.0625 13.9043 17.8516 14.0459 16.4062 14.0459H11.6455ZM11.6455 10.5742H13.2275C14.0479 10.5742 14.6143 10.3594 14.9268 9.92969C15.2393 9.5 15.3955 8.93359 15.3955 8.23047C15.3955 7.56641 15.2393 7.00488 14.9268 6.5459C14.6143 6.08691 14.0479 5.85742 13.2275 5.85742H11.6455V10.5742Z" fill="#2D3142"/>
<path d="M32.4756 7.89355C31.9775 7.89355 31.5479 7.93262 31.1865 8.01074C30.835 8.0791 30.5322 8.16211 30.2783 8.25977C30.0244 8.35742 29.8145 8.46973 29.6484 8.59668C29.4824 8.71387 29.3359 8.82129 29.209 8.91895L29.3555 9.06543C29.541 8.96777 29.7412 8.87012 29.9561 8.77246C30.1807 8.6748 30.4639 8.62598 30.8057 8.62598C31.3818 8.62598 31.8799 8.81641 32.2998 9.19727C32.7197 9.56836 32.9297 10.1641 32.9297 10.9844C32.9297 11.7656 32.6074 12.3955 31.9629 12.874C31.3281 13.3428 30.4736 13.5771 29.3994 13.5771C28.374 13.5771 27.5537 13.2842 26.9385 12.6982C26.333 12.1025 26.0303 11.2627 26.0303 10.1787C26.0303 9.58301 26.1963 8.99219 26.5283 8.40625C26.8604 7.81055 27.373 7.27832 28.0664 6.80957C28.7695 6.34082 29.6582 5.95508 30.7324 5.65234C31.8164 5.34961 33.1201 5.19824 34.6436 5.19824C36.46 5.19824 37.9443 5.36914 39.0967 5.71094C40.249 6.05273 41.1426 6.49219 41.7773 7.0293C42.4219 7.56641 42.8613 8.17676 43.0957 8.86035C43.3398 9.54395 43.4619 10.2324 43.4619 10.9258V16.6533C43.4619 17.542 43.4912 18.1475 43.5498 18.4697C43.6084 18.7822 43.8281 18.9385 44.209 18.9385C44.5117 18.9385 44.7217 18.7969 44.8389 18.5137C44.9658 18.2207 45.0293 17.7227 45.0293 17.0195V15.1885H46.6992V17.0488C46.6992 17.9277 46.626 18.709 46.4795 19.3926C46.333 20.0664 46.0547 20.6475 45.6445 21.1357C45.2344 21.6143 44.6777 21.9756 43.9746 22.2197C43.2715 22.4736 42.373 22.6006 41.2793 22.6006C40.293 22.6006 39.4727 22.4932 38.8184 22.2783C38.1738 22.0732 37.6611 21.8145 37.2803 21.502C36.8994 21.1895 36.626 20.8672 36.46 20.5352C36.3037 20.1934 36.2256 19.8906 36.2256 19.627H35.9912C35.9326 20.0273 35.7617 20.4082 35.4785 20.7695C35.2051 21.1309 34.8193 21.4531 34.3213 21.7363C33.833 22.0098 33.2422 22.2295 32.5488 22.3955C31.8652 22.5713 31.084 22.6592 30.2051 22.6592C29.3652 22.6592 28.5986 22.5762 27.9053 22.4102C27.2217 22.2539 26.6357 22.0049 26.1475 21.6631C25.6689 21.3115 25.293 20.8623 25.0195 20.3154C24.7559 19.7588 24.624 19.0996 24.624 18.3379C24.624 17.4004 24.8877 16.6631 25.415 16.126C25.9424 15.5791 26.6064 15.1494 27.4072 14.8369C28.208 14.5146 29.0771 14.2559 30.0146 14.0605C30.9619 13.8555 31.8359 13.6113 32.6367 13.3281C33.4375 13.0449 34.1016 12.6787 34.6289 12.2295C35.1562 11.7803 35.4199 11.1455 35.4199 10.3252C35.4199 9.59277 35.1904 9.00684 34.7314 8.56738C34.2725 8.11816 33.5205 7.89355 32.4756 7.89355ZM35.4199 14.2363C35.2051 14.5488 34.9365 14.8027 34.6143 14.998C34.292 15.1836 33.9795 15.3691 33.6768 15.5547C33.3838 15.7305 33.125 15.9453 32.9004 16.1992C32.6855 16.4434 32.5781 16.7754 32.5781 17.1953C32.5781 17.5176 32.666 17.8105 32.8418 18.0742C33.0176 18.3281 33.3594 18.4551 33.8672 18.4551C34.3262 18.4551 34.6973 18.2793 34.9805 17.9277C35.2734 17.5664 35.4199 17.0635 35.4199 16.4189V14.2363Z" fill="#2D3142"/>
<path d="M61.1719 12.6396C61.1719 12.2588 61.123 11.9561 61.0254 11.7314C60.9375 11.4971 60.8203 11.3213 60.6738 11.2041C60.5371 11.0771 60.3809 10.9941 60.2051 10.9551C60.0293 10.916 59.8584 10.8965 59.6924 10.8965C59.0576 10.8965 58.584 11.082 58.2715 11.4531C57.959 11.8242 57.8027 12.3516 57.8027 13.0352V15.1299C57.8027 15.6475 57.8906 16.0186 58.0664 16.2432C58.252 16.458 58.6035 16.5654 59.1211 16.5654H59.9121V22H47.666V16.5654H48.5303C48.9307 16.5654 49.2334 16.4385 49.4385 16.1846C49.6533 15.9209 49.7607 15.6084 49.7607 15.2471V12.4639C49.7607 12.0049 49.624 11.6973 49.3506 11.541C49.0869 11.375 48.7842 11.292 48.4424 11.292H47.666V5.85742H56.3672L56.0596 9.88574H56.3086C56.5234 8.38184 57.1826 7.22461 58.2861 6.41406C59.3896 5.60352 60.8887 5.19824 62.7832 5.19824C64.1211 5.19824 65.21 5.38867 66.0498 5.76953C66.8896 6.15039 67.5391 6.63379 67.998 7.21973C68.4668 7.7959 68.7842 8.42578 68.9502 9.10938C69.1162 9.7832 69.1992 10.418 69.1992 11.0137V15.1299C69.1992 15.6475 69.2871 16.0186 69.4629 16.2432C69.6484 16.458 70 16.5654 70.5176 16.5654H71.3086V22H61.1719V12.6396Z" fill="#2D3142"/>
<path d="M82.4561 0.422852V5.85742H86.8359V11.292H82.4561V15.7891C82.4561 16.4336 82.5439 16.9609 82.7197 17.3711C82.9053 17.7812 83.2812 17.9863 83.8477 17.9863C84.1602 17.9863 84.4092 17.9277 84.5947 17.8105C84.79 17.6836 84.9414 17.5225 85.0488 17.3271C85.166 17.1221 85.2393 16.8926 85.2686 16.6387C85.2979 16.375 85.3125 16.0918 85.3125 15.7891V13.6064H86.9971V15.9648C86.9971 16.9121 86.8945 17.7959 86.6895 18.6162C86.4941 19.4365 86.1523 20.1445 85.6641 20.7402C85.1855 21.3359 84.5312 21.8096 83.7012 22.1611C82.8711 22.5127 81.8262 22.6885 80.5664 22.6885C79.1699 22.6885 78.0566 22.5176 77.2266 22.1758C76.3965 21.834 75.7666 21.3652 75.3369 20.7695C74.9072 20.1738 74.624 19.4658 74.4873 18.6455C74.3604 17.8252 74.2969 16.9316 74.2969 15.9648V11.292H71.9971V6.45801C72.7295 6.45801 73.4082 6.30176 74.0332 5.98926C74.668 5.66699 75.21 5.22754 75.6592 4.6709C76.1182 4.10449 76.4697 3.45996 76.7139 2.7373C76.9678 2.01465 77.0947 1.24316 77.0947 0.422852H82.4561Z" fill="#2D3142"/>
<path d="M97.207 5.85742L96.958 9.88574H97.207C97.5488 8.34277 98.1152 7.17578 98.9062 6.38477C99.707 5.59375 100.742 5.19824 102.012 5.19824C102.764 5.19824 103.408 5.32031 103.945 5.56445C104.492 5.79883 104.932 6.11621 105.264 6.5166C105.596 6.91699 105.835 7.38086 105.981 7.9082C106.128 8.42578 106.201 8.96289 106.201 9.51953C106.201 9.97852 106.133 10.4326 105.996 10.8818C105.859 11.3311 105.64 11.7363 105.337 12.0977C105.034 12.459 104.644 12.752 104.165 12.9766C103.687 13.1914 103.096 13.2988 102.393 13.2988C101.416 13.2988 100.645 13.0498 100.078 12.5518C99.5215 12.0537 99.2432 11.4531 99.2432 10.75C99.2432 10.4082 99.2822 10.1201 99.3604 9.88574C99.4385 9.6416 99.5166 9.44629 99.5947 9.2998C99.6826 9.14355 99.7412 9.03125 99.7705 8.96289C99.7998 8.89453 99.7656 8.86035 99.668 8.86035C99.4629 8.86035 99.2383 9.09473 98.9941 9.56348C98.7598 10.0322 98.6426 10.7695 98.6426 11.7754V15.1299C98.6426 15.6475 98.7305 16.0186 98.9062 16.2432C99.0918 16.458 99.4434 16.5654 99.9609 16.5654H100.84V22H88.5059V16.5654H89.3701C89.7705 16.5654 90.0732 16.4385 90.2783 16.1846C90.4932 15.9209 90.6006 15.6084 90.6006 15.2471V12.4639C90.6006 12.0049 90.4639 11.6973 90.1904 11.541C89.9268 11.375 89.624 11.292 89.2822 11.292H88.5059V5.85742H97.207Z" fill="#2D3142"/>
<path d="M120.469 23.2012C120.137 23.9238 119.795 24.6953 119.443 25.5156C119.092 26.3359 118.628 27.0928 118.052 27.7861C117.485 28.4893 116.753 29.0703 115.854 29.5293C114.956 29.9883 113.784 30.2178 112.339 30.2178C111.323 30.2178 110.435 30.0859 109.673 29.8223C108.911 29.5684 108.281 29.2217 107.783 28.7822C107.285 28.3428 106.914 27.835 106.67 27.2588C106.436 26.6924 106.318 26.1113 106.318 25.5156C106.318 24.334 106.68 23.4014 107.402 22.7178C108.135 22.0439 109.043 21.707 110.127 21.707C110.762 21.707 111.294 21.7998 111.724 21.9854C112.153 22.1709 112.505 22.4102 112.778 22.7031C113.052 22.9961 113.242 23.3184 113.35 23.6699C113.457 24.0215 113.511 24.3535 113.511 24.666C113.511 25.3691 113.335 25.9062 112.983 26.2773C112.642 26.6484 112.227 26.8828 111.738 26.9805C111.777 27.0195 111.841 27.0488 111.929 27.0684C112.046 27.127 112.285 27.1562 112.646 27.1562C112.988 27.1562 113.291 27.0684 113.555 26.8926C113.828 26.7266 114.072 26.5166 114.287 26.2627C114.512 26.0186 114.702 25.75 114.858 25.457C115.024 25.1738 115.156 24.9102 115.254 24.666L115.283 24.5781L109.043 12.5518C108.945 12.3271 108.838 12.1367 108.721 11.9805C108.613 11.8242 108.477 11.6973 108.311 11.5996C108.154 11.4922 107.954 11.4141 107.71 11.3652C107.476 11.3164 107.178 11.292 106.816 11.292V5.85742H118.579V11.292C117.964 11.292 117.559 11.3848 117.363 11.5703C117.178 11.7461 117.163 12.0244 117.319 12.4053L119.092 16.1846L120.806 12.4053C120.962 12.0635 120.942 11.7949 120.747 11.5996C120.562 11.3945 120.161 11.292 119.546 11.292V5.85742H127.705V11.292C126.982 11.292 126.475 11.3945 126.182 11.5996C125.898 11.7949 125.654 12.1123 125.449 12.5518L120.469 23.2012Z" fill="#2D3142"/>
</svg>
